<svg width="38" height="38" viewBox="0 0 38 38" fill="none" xmlns="http://www.w3.org/2000/svg">
<circle cx="19.0481" cy="18.9519" r="18.9519" fill="url(#paint0_linear_278_261)"/>
<path d="M15.5444 12.1643C16.1292 12.1535 16.7131 12.2134 17.2835 12.3429C17.7637 12.4477 18.2197 12.6428 18.6271 12.9178C19.0034 13.1913 19.3011 13.5589 19.4904 13.9838C19.708 14.5063 19.8129 15.0688 19.7984 15.6345C19.8231 16.2558 19.6645 16.8705 19.3422 17.4022C19.0032 17.9044 18.5346 18.3054 17.9861 18.5628C18.7305 18.7635 19.3788 19.2232 19.8145 19.8591C20.2328 20.533 20.443 21.3153 20.4189 22.108C20.4327 22.7401 20.302 23.367 20.0368 23.9409C19.7917 24.4416 19.4327 24.8779 18.9887 25.2149C18.5316 25.5482 18.0171 25.7948 17.471 25.9425C16.9046 26.0992 16.3195 26.1779 15.7319 26.1764H9.27979V12.1643H15.5444ZM15.1721 17.8317C15.6316 17.8506 16.0839 17.7131 16.455 17.4415C16.6327 17.2833 16.771 17.0857 16.8588 16.8645C16.9465 16.6432 16.9813 16.4046 16.9603 16.1675C16.9722 15.8907 16.9171 15.615 16.7996 15.364C16.7 15.1642 16.545 14.9972 16.3532 14.8828C16.159 14.757 15.9407 14.6728 15.7122 14.6355C15.4643 14.5875 15.2121 14.5657 14.9596 14.5704H12.2027V17.8442H15.1721V17.8317ZM15.3328 23.7972C15.6107 23.8009 15.888 23.771 16.1586 23.7079C16.4059 23.6533 16.6405 23.5517 16.8496 23.4088C17.0545 23.266 17.22 23.0737 17.3308 22.8499C17.4593 22.5646 17.5184 22.2528 17.5031 21.9402C17.531 21.6553 17.4933 21.3679 17.3928 21.0998C17.2924 20.8318 17.1319 20.5903 16.9237 20.3939C16.4824 20.0689 15.9416 19.9079 15.3944 19.9386H12.2027V23.7972H15.3328Z" fill="url(#paint1_linear_278_261)"/>
<path d="M24.582 23.7454C24.8114 23.958 25.0817 24.1218 25.3764 24.2268C25.671 24.3318 25.984 24.3757 26.2962 24.3561C26.7911 24.3686 27.2764 24.218 27.6773 23.9275C28.0034 23.7154 28.2504 23.4016 28.3799 23.0347H30.7109C30.4626 24.0791 29.856 25.0035 28.9968 25.647C28.1725 26.1941 27.1984 26.4712 26.2096 26.4398C25.5038 26.449 24.8034 26.3164 24.1499 26.0496C23.5588 25.8031 23.0286 25.4305 22.5965 24.9578C22.166 24.4625 21.8352 23.8886 21.6225 23.2678C21.3837 22.5738 21.2668 21.8438 21.277 21.1099C21.2726 20.3884 21.3935 19.6716 21.6341 18.9914C21.9574 18.0344 22.5755 17.2045 23.3998 16.6207C24.224 16.0368 25.2121 15.7291 26.2221 15.7417C26.9677 15.7261 27.7051 15.9006 28.3647 16.2488C28.9609 16.5757 29.4753 17.0336 29.869 17.5879C30.2718 18.1696 30.5605 18.8225 30.7198 19.5119C30.8946 20.2521 30.9568 21.0145 30.9047 21.7733H23.9616C23.9053 22.4862 24.1277 23.1931 24.582 23.7454ZM27.6282 18.4164C27.4339 18.2221 27.2002 18.0717 26.9429 17.9752C26.6855 17.8788 26.4105 17.8387 26.1363 17.8576C25.7726 17.8437 25.4115 17.9243 25.0882 18.0915C24.8319 18.2326 24.6057 18.4224 24.4222 18.6503C24.2596 18.864 24.1385 19.1063 24.0651 19.3646C23.999 19.58 23.9576 19.8022 23.9419 20.027H28.2424C28.2049 19.441 27.9915 18.88 27.63 18.4173L27.6282 18.4164Z" fill="url(#paint2_linear_278_261)"/>
<path d="M28.7765 13.1001H23.3877V14.4776H28.7765V13.1001Z" fill="url(#paint3_linear_278_261)"/>
<defs>
<linearGradient id="paint0_linear_278_261" x1="0.683848" y1="2.44885" x2="43.5766" y2="21.1641" gradientUnits="userSpaceOnUse">
<stop offset="0.611212" stop-color="#FDC62E"/>
<stop offset="1" stop-color="#FECE49"/>
</linearGradient>
<linearGradient id="paint1_linear_278_261" x1="9.37572" y1="12.6551" x2="21.7663" y2="14.1519" gradientUnits="userSpaceOnUse">
<stop stop-color="#222222"/>
<stop offset="1" stop-color="#515151"/>
<stop offset="1" stop-color="#222222"/>
</linearGradient>
<linearGradient id="paint2_linear_278_261" x1="21.3594" y1="16.1165" x2="32.0437" y2="17.5798" gradientUnits="userSpaceOnUse">
<stop stop-color="#222222"/>
<stop offset="1" stop-color="#515151"/>
<stop offset="1" stop-color="#222222"/>
</linearGradient>
<linearGradient id="paint3_linear_278_261" x1="23.4341" y1="13.1485" x2="27.9274" y2="15.8191" gradientUnits="userSpaceOnUse">
<stop stop-color="#222222"/>
<stop offset="1" stop-color="#515151"/>
<stop offset="1" stop-color="#222222"/>
</linearGradient>
</defs>
</svg>
