<svg width="29" height="27" viewBox="0 0 29 27" fill="none" xmlns="http://www.w3.org/2000/svg">
<path d="M7.61213 16.1416L4.15277 23.9269H11.218H19.6315H25.2406V21.1224H8.46821L10.0261 17.6168H24.1475L28.4167 4.81071L25.7559 3.92379L22.1269 14.8123H10.125L5.21708 0.088623H0V2.89313H3.19644L7.61213 16.1416Z" fill="#9090A3"/>
<path d="M11.2184 26.7322C11.9929 26.7322 12.6207 26.1044 12.6207 25.3299C12.6207 24.5555 11.9929 23.9277 11.2184 23.9277C10.444 23.9277 9.81616 24.5555 9.81616 25.3299C9.81616 26.1044 10.444 26.7322 11.2184 26.7322Z" fill="#9090A3"/>
<path d="M19.6317 26.7322C20.4062 26.7322 21.034 26.1044 21.034 25.3299C21.034 24.5555 20.4062 23.9277 19.6317 23.9277C18.8573 23.9277 18.2295 24.5555 18.2295 25.3299C18.2295 26.1044 18.8573 26.7322 19.6317 26.7322Z" fill="#9090A3"/>
</svg>
