<svg width="38" height="38" viewBox="0 0 38 38" fill="none" xmlns="http://www.w3.org/2000/svg">
<g id="Cart">
<path id="Union" fill-rule="evenodd" clip-rule="evenodd" d="M4.354 2.948C3.57735 2.948 2.94775 3.5776 2.94775 4.35425C2.94775 5.1309 3.57735 5.7605 4.354 5.7605H7.21437L7.73974 7.86198L10.5015 18.9089C8.88697 19.3398 7.69775 20.8123 7.69775 22.5626C7.69775 24.6509 9.39068 26.3438 11.479 26.3438H29.6873C30.464 26.3438 31.0936 25.7142 31.0936 24.9376C31.0936 24.1609 30.464 23.5313 29.6873 23.5313H11.479C10.944 23.5313 10.5103 23.0976 10.5103 22.5626C10.5103 22.0276 10.944 21.5938 11.479 21.5938H12.2707H29.6873C30.3326 21.5938 30.8951 21.1547 31.0516 20.5286L34.2183 7.86198C34.3233 7.44188 34.2289 6.99681 33.9624 6.65549C33.6959 6.31417 33.287 6.11467 32.854 6.11467H10.202L9.6766 4.01318C9.5201 3.38717 8.95762 2.948 8.31234 2.948H4.354ZM12.2707 28.2813C10.6196 28.2813 9.28109 29.6198 9.28109 31.2709C9.28109 32.922 10.6196 34.2605 12.2707 34.2605C13.9218 34.2605 15.2603 32.922 15.2603 31.2709C15.2603 29.6198 13.9218 28.2813 12.2707 28.2813ZM28.104 28.2813C26.4529 28.2813 25.1144 29.6198 25.1144 31.2709C25.1144 32.922 26.4529 34.2605 28.104 34.2605C29.7551 34.2605 31.0936 32.922 31.0936 31.2709C31.0936 29.6198 29.7551 28.2813 28.104 28.2813Z" fill="black"/>
</g>
</svg>
