<svg width="39" height="38" viewBox="0 0 39 38" fill="none" xmlns="http://www.w3.org/2000/svg">
<circle cx="19.2981" cy="18.9519" r="18.9519" fill="url(#paint0_linear_278_260)"/>
<path fill-rule="evenodd" clip-rule="evenodd" d="M19.3057 10.3875C14.4499 10.3875 10.5244 14.4737 10.5244 19.5289C10.5244 23.5698 13.0396 26.9903 16.5288 28.201C16.9651 28.292 17.1249 28.0043 17.1249 27.7622C17.1249 27.5503 17.1105 26.8239 17.1105 26.067C14.6677 26.612 14.1591 24.9773 14.1591 24.9773C13.7665 23.9179 13.1848 23.6456 13.1848 23.6456C12.3853 23.0856 13.2431 23.0856 13.2431 23.0856C14.1299 23.1461 14.5953 24.0239 14.5953 24.0239C15.3802 25.4162 16.6451 25.0228 17.154 24.7806C17.2266 24.1903 17.4594 23.7817 17.7065 23.5547C15.7583 23.3428 13.7084 22.5558 13.7084 19.0445C13.7084 18.0456 14.0571 17.2283 14.6097 16.5927C14.5225 16.3658 14.2171 15.4272 14.697 14.1711C14.697 14.1711 15.4385 13.9289 17.1103 15.1095C17.8261 14.9093 18.5642 14.8076 19.3057 14.8067C20.0472 14.8067 20.803 14.9128 21.5009 15.1095C23.1729 13.9289 23.9144 14.1711 23.9144 14.1711C24.3943 15.4272 24.0887 16.3658 24.0016 16.5927C24.5687 17.2283 24.903 18.0456 24.903 19.0445C24.903 22.5558 22.8532 23.3276 20.8904 23.5547C21.2103 23.8423 21.4864 24.387 21.4864 25.2498C21.4864 26.4756 21.472 27.4595 21.472 27.7621C21.472 28.0043 21.632 28.292 22.068 28.2011C25.5573 26.9901 28.0725 23.5698 28.0725 19.5289C28.0868 14.4737 24.147 10.3875 19.3057 10.3875Z" fill="url(#paint1_linear_278_260)"/>
<defs>
<linearGradient id="paint0_linear_278_260" x1="0.672573" y1="1.3309" x2="42.4779" y2="7.68283" gradientUnits="userSpaceOnUse">
<stop stop-color="#222222"/>
<stop offset="1" stop-color="#515151"/>
<stop offset="1" stop-color="#222222"/>
</linearGradient>
<linearGradient id="paint1_linear_278_260" x1="11.0685" y1="28.2183" x2="31.5403" y2="18.8081" gradientUnits="userSpaceOnUse">
<stop stop-color="#EFF0F4"/>
<stop offset="1" stop-color="#ECECEC"/>
</linearGradient>
</defs>
</svg>
