<svg width="38" height="38" viewBox="0 0 38 38" fill="none" xmlns="http://www.w3.org/2000/svg">
<circle cx="18.9519" cy="18.9519" r="18.9519" fill="url(#paint0_linear_278_258)"/>
<rect width="23.1635" height="23.8654" transform="translate(7.01953 7.72119)" fill="url(#paint1_linear_278_258)"/>
<path d="M27.2876 12.0205V27.2873C27.2876 27.6363 27.1531 27.9711 26.9135 28.2179C26.6739 28.4647 26.349 28.6034 26.0102 28.6034H11.1924C10.8536 28.6034 10.5287 28.4647 10.2892 28.2179C10.0496 27.9711 9.91504 27.6363 9.91504 27.2873V12.0205C9.91504 11.6714 10.0496 11.3366 10.2892 11.0898C10.5287 10.843 10.8536 10.7043 11.1924 10.7043H26.0102C26.349 10.7043 26.6739 10.843 26.9135 11.0898C27.1531 11.3366 27.2876 11.6714 27.2876 12.0205ZM15.0246 17.5481H12.4698V25.9712H15.0246V17.5481ZM15.2546 14.6527C15.2559 14.4536 15.2192 14.2561 15.1465 14.0716C15.0738 13.8872 14.9665 13.7193 14.8308 13.5775C14.6951 13.4357 14.5336 13.3229 14.3556 13.2454C14.1776 13.1679 13.9865 13.1274 13.7932 13.126H13.7472C13.3542 13.126 12.9773 13.2868 12.6995 13.5731C12.4216 13.8594 12.2654 14.2478 12.2654 14.6527C12.2654 15.0576 12.4216 15.4459 12.6995 15.7322C12.9773 16.0185 13.3542 16.1793 13.7472 16.1793C13.9405 16.1842 14.1328 16.1499 14.3132 16.0782C14.4935 16.0065 14.6584 15.8988 14.7984 15.7615C14.9384 15.6241 15.0507 15.4596 15.129 15.2775C15.2072 15.0954 15.2499 14.8992 15.2546 14.7V14.6527ZM24.7328 20.8542C24.7328 18.322 23.1693 17.3375 21.616 17.3375C21.1074 17.3113 20.601 17.4229 20.1474 17.6612C19.6937 17.8995 19.3086 18.2562 19.0305 18.6957H18.959V17.5481H16.5575V25.9712H19.1123V21.4912C19.0754 21.0323 19.2156 20.577 19.5027 20.2241C19.7897 19.8712 20.2002 19.6493 20.6452 19.6065H20.7423C21.5547 19.6065 22.1576 20.1329 22.1576 21.4596V25.9712H24.7124L24.7328 20.8542Z" fill="url(#paint2_linear_278_258)"/>
<defs>
<linearGradient id="paint0_linear_278_258" x1="-2.82406e-07" y1="18.9519" x2="37.9039" y2="18.9519" gradientUnits="userSpaceOnUse">
<stop stop-color="#167DFF"/>
<stop offset="1" stop-color="#4F9DFF"/>
</linearGradient>
<linearGradient id="paint1_linear_278_258" x1="-1.72581e-07" y1="11.9327" x2="23.1635" y2="11.9327" gradientUnits="userSpaceOnUse">
<stop stop-color="#167DFF"/>
<stop offset="1" stop-color="#4F9DFF"/>
</linearGradient>
<linearGradient id="paint2_linear_278_258" x1="10.4537" y1="28.6034" x2="30.8179" y2="19.3715" gradientUnits="userSpaceOnUse">
<stop stop-color="#EFF0F4"/>
<stop offset="1" stop-color="#ECECEC"/>
</linearGradient>
</defs>
</svg>
